<svg width="200" height="21" viewBox="0 0 200 21" fill="none" xmlns="http://www.w3.org/2000/svg">
    <g clip-path="url(#clip0_670_107)">
        <path
            d="M57.7575 20.3879L53.7664 11.3738V20.3879H49.949V0.934082H53.7664V8.88703L57.8444 0.934082H61.7194L57.0629 9.75432L61.8345 20.3879H57.7575Z"
            fill="#FDDB00" />
        <path d="M63.8063 20.3879V0.934082H67.5369V20.3879H63.8063Z" fill="#FDDB00" />
        <path
            d="M76.9003 20.3879L73.2848 6.05297L73.6028 20.3879H70.0741V0.934082H74.9042L78.5773 15.9152L78.2017 0.934082H81.6436V20.3879H76.9003Z"
            fill="#FDDB00" />
        <path d="M91.3069 3.88426V20.3879H87.5187V3.88426H83.7588V0.934082H95.0961V3.88426H91.3069Z"
            fill="#FDDB00" />
        <path
            d="M106.757 19.1411C105.543 20.2688 103.894 20.5 102.332 20.5C100.829 20.5 99.2952 20.2981 98.0806 19.3147C97.4728 18.823 97.1841 18.3313 97.068 18.0426C96.7206 17.3197 96.6338 16.4514 96.6338 15.7002V5.53209C96.6338 5.09794 96.547 3.04433 97.9059 1.82973C98.6581 1.16438 100.075 0.499023 102.359 0.499023C105.31 0.499023 106.871 1.71362 107.478 2.89995C107.796 3.56531 107.941 4.20138 107.941 5.61892V15.6992C107.941 17.0006 107.739 18.1869 106.755 19.1411H106.757ZM104.155 5.87941C104.155 5.76431 104.241 4.83847 103.923 4.23066C103.75 3.85507 103.317 3.3341 102.362 3.3341C102.16 3.3341 101.609 3.36338 101.147 3.70969C100.308 4.28821 100.424 5.18477 100.424 6.02278V15.0621C100.424 15.6689 100.395 16.4211 100.771 16.9421C101.205 17.5488 102.131 17.5488 102.304 17.5488C102.477 17.5488 103.027 17.5196 103.49 17.2025C104.185 16.7108 104.156 15.9011 104.156 15.1489L104.155 5.87941Z"
            fill="#FDDB00" />
        <path
            d="M117.134 20.3879L113.518 6.05297L113.836 20.3879H110.307V0.934082H115.137L118.811 15.9152L118.435 0.934082H121.877V20.3879H117.134Z"
            fill="#FDDB00" />
        <path
            d="M136.327 20.3879L133.435 12.2996H132.018V20.3879H128.258V0.934082H135.777C138.264 0.934082 139.45 2.09113 139.45 4.57788V8.28024C139.45 10.3046 138.843 11.2304 137.049 11.7797L140.23 20.3889H136.326L136.327 20.3879ZM135.72 5.53199C135.72 4.25984 135.286 3.85397 133.984 3.85397H132.018V9.29089H133.984C135.286 9.29089 135.72 8.82847 135.72 7.35339V5.53199Z"
            fill="#FDDB00" />
        <path
            d="M149.837 20.3879L149.345 18.0263H145.875L145.326 20.3879H141.566L145.528 0.934082H149.837L153.654 20.3879H149.837ZM147.696 6.11052L146.336 14.8732H148.939L147.696 6.11052Z"
            fill="#FDDB00" />
        <path
            d="M168.896 20.3879L169.243 3.65204L165.946 20.3879H162.446L159.062 3.65204L159.352 20.3879H155.649V0.934082H161.781L164.182 15.2205L166.611 0.934082H172.656V20.3879H168.896Z"
            fill="#FDDB00" />
        <path
            d="M174.874 20.3879V0.934082H184.764V4.02864H178.633V8.82948H184.417V11.924H178.633V17.2358H185.053V20.3879H174.873H174.874Z"
            fill="#FDDB00" />
        <path
            d="M194.049 20.3879L190.434 6.05297L190.752 20.3879H187.223V0.934082H192.053L195.726 15.9152L195.351 0.934082H198.792V20.3879H194.049Z"
            fill="#FDDB00" />
        <path d="M2 0.994629C2.62699 7.30489 5.97496 12.8125 10.8546 16.3301L19.7091 0.994629H2Z"
            fill="#FDDB00" />
        <path
            d="M44.8825 0.994629H27.1734L36.028 16.3301C40.9076 12.8125 44.2565 7.30388 44.8825 0.994629Z"
            fill="#FDDB00" />
        <path
            d="M14.5852 18.4897C17.287 19.7093 20.2846 20.3878 23.4418 20.3878C26.5989 20.3878 29.5965 19.7093 32.2984 18.4897L23.4418 3.14917L14.5852 18.4897Z"
            fill="#FDDB00" />
    </g>
    <defs>
        <clipPath id="clip0_670_107">
            <rect width="200" height="20" fill="white" transform="translate(0 0.5)" />
        </clipPath>
    </defs>
</svg>