<?xml version="1.0" encoding="utf-8"?>
<svg version="1.1" id="Layer_1" xmlns="http://www.w3.org/2000/svg" xmlns:xlink="http://www.w3.org/1999/xlink" x="0px" y="0px"
	 viewBox="260 380 490 260" style="enable-background:new 260 380 490 260;" xml:space="preserve">
<g>
	<path style="fill:#FF2741;" d="M621.874,515.121c-0.002-10.06-0.138-20.123,0.067-30.179c0.079-3.871-1.349-5.069-5.091-4.965
		c-7.671,0.213-15.356-0.065-23.029,0.114c-3.651,0.085-4.885-1.311-4.804-4.902c0.185-8.203,0.185-16.415,0-24.618
		c-0.081-3.587,1.133-4.979,4.796-4.891c7.805,0.187,15.621-0.078,23.426,0.111c3.696,0.089,5.342-1.093,5.215-4.976
		c-0.199-6.082-0.18-12.18-0.001-18.264c0.103-3.496-1.344-4.724-4.708-4.61c-4.495,0.153-9-0.006-13.5,0.026
		c-2.779,0.02-4.09-1.157-4.064-4.061c0.08-9,0.076-18.002-0.001-27.003c-0.023-2.726,1.152-3.831,3.804-3.801
		c4.632,0.054,9.267-0.085,13.898,0.019c2.876,0.065,4.088-1.109,4.006-3.998c-0.27-9.573,0.519-8.026,8.671-8.109
		c7.147-0.073,14.298,0.1,21.443-0.06c3.444-0.077,4.805,1.306,4.709,4.674c-0.231,8.04-0.177,7.45,7.637,7.458
		c9.166,0.01,18.172,0.492,26.697,4.659c12.824,6.269,19.238,16.548,19.838,30.542c0.323,7.532,0.254,15.091,0.058,22.63
		c-0.094,3.632,1.164,4.993,4.794,4.853c8.39-0.323,15.918,2.468,22.564,7.383c6.99,5.17,10.771,12.333,11.103,21.029
		c0.638,16.665,0.97,33.376-0.057,50.001c-0.891,14.411-11.74,24.47-26.164,25.729c-7.374,0.644-14.784,0.909-22.205,0.761
		c-3.812-0.076-6.413-1.235-7.931-5.092c-2.613-6.643-5.741-13.081-8.526-19.659c-1.74-4.109-1.246-4.744,3.374-4.773
		c6.751-0.043,13.502,0.028,20.252-0.042c5.277-0.055,7.661-2.066,7.84-7.348c0.26-7.667,0.34-15.363-0.013-23.023
		c-0.324-7.035-4.418-10.605-11.77-10.661c-14.427-0.112-28.857,0.058-43.284-0.091c-3.82-0.04-4.264,1.9-4.254,4.965
		c0.067,19.458,0.037,38.916,0.03,58.375c-0.002,7.124-0.232,7.349-7.356,7.356c-7.148,0.007-14.296,0.016-21.444-0.003
		c-5.599-0.015-5.994-0.406-6.01-6.17C621.856,534.711,621.876,524.916,621.874,515.121z M656.1,431.487c0.05,0,0.1,0,0.15,0
		c0,3.57-0.064,7.141,0.024,10.709c0.051,2.077,0.927,3.547,3.35,3.53c5.158-0.035,10.316-0.008,15.474-0.031
		c1.709-0.008,2.821-0.828,2.82-2.617c-0.004-6.874,0.055-13.752-0.17-20.62c-0.087-2.658-1.734-4.41-4.638-4.431
		c-4.629-0.034-9.258-0.007-13.887-0.027c-2.148-0.009-3.138,1.054-3.128,3.17C656.112,424.609,656.1,428.048,656.1,431.487z"/>
	<path style="fill:#FF2741;" d="M537.127,550.647c-16.02,0-32.04,0.028-48.06-0.01c-9.908-0.023-9.871-0.051-5.902-8.743
		c3.079-6.741,6.162-13.484,9.026-20.317c1.57-3.747,3.779-5.549,8.117-5.306c6.599,0.37,13.236,0.009,19.854,0.13
		c2.882,0.053,4.014-1.015,4.009-3.936c-0.057-30.187-0.055-60.373-0.007-90.56c0.005-2.923-1.228-4.028-4.064-3.954
		c-3.969,0.104-7.944-0.031-11.915,0.017c-3.062,0.037-4.713-1.199-4.696-4.448c0.047-8.87,0.035-17.741,0.005-26.611
		c-0.009-2.675,1.269-3.818,3.896-3.815c23.037,0.021,46.074,0.029,69.111-0.011c3.094-0.005,4.187,1.431,4.158,4.394
		c-0.084,8.737-0.088,17.477,0,26.214c0.031,3.061-1.294,4.336-4.284,4.282c-3.838-0.07-7.691,0.184-11.515-0.054
		c-3.798-0.237-5.058,1.189-5.041,5.006c0.122,28.068,0.065,56.136,0.065,84.205c0,1.854,0.093,3.712-0.012,5.56
		c-0.157,2.757,1.094,3.739,3.784,3.707c7.81-0.093,15.625,0.084,23.433-0.077c3.392-0.07,4.761,1.086,4.694,4.574
		c-0.16,8.338-0.179,16.684,0.006,25.021c0.083,3.757-1.579,4.79-5.013,4.771C570.227,550.598,553.677,550.646,537.127,550.647z"/>
	<path style="fill:#FF2741;" d="M347.695,451.305c0,24.628,0.054,44.079-0.03,63.529c-0.028,6.477-0.487,12.884-3.028,19.049
		c-4.085,9.91-11.256,15.32-21.926,16.213c-5.146,0.431-10.289,0.642-15.454,0.595c-3.034-0.028-4.845-1.274-6.033-4.11
		c-2.81-6.707-5.868-13.309-8.812-19.96c-1.802-4.07-1.108-5.156,3.467-5.245c3.836-0.075,7.676,0.042,11.511-0.056
		c4.321-0.11,5.374-1.141,5.401-5.526c0.068-11.247,0.029-22.494,0.034-33.741c0.008-17.466-0.371-34.943,0.137-52.395
		c0.509-17.462,0.372-34.916,0.453-52.373c0.016-3.448,1.264-4.681,4.675-4.616c8.068,0.155,16.145,0.175,24.212-0.008
		c3.625-0.082,4.773,1.267,4.871,4.853C347.896,403.835,347.615,430.159,347.695,451.305z"/>
	<path style="fill:#FF2741;" d="M459.061,504.673c-4.896-0.001-9.793-0.013-14.689,0.004c-2.677,0.009-5.284-0.425-7.784-1.341
		c-6.638-2.432-9.118-7.107-7.369-14.112c1.71-6.849,5.244-12.979,7.954-19.432c2.405-5.728,5.025-11.367,7.61-17.018
		c1.265-2.765,0.531-3.798-2.548-3.738c-4.218,0.081-8.455,0.34-12.641-0.707c-8.362-2.092-11.62-8.074-8.734-16.162
		c4.589-12.86,11.22-24.821,16.424-37.412c2.726-6.594,5.965-12.977,8.673-19.578c1.225-2.985,2.821-4.354,6.167-4.282
		c8.73,0.189,17.467,0.126,26.201,0.037c3.306-0.034,3.967,1.207,2.651,4.095c-5.044,11.07-10.071,22.149-15.021,33.261
		c-3.317,7.446-2.856,8.108,5.133,8.128c6.484,0.016,12.969,0.075,19.453,0.003c3.437-0.038,4.234,1.282,2.844,4.381
		c-6.817,15.202-13.408,30.507-20.414,45.62c-4.06,8.757-3.856,9.437,5.721,9.441c3.044,0.001,6.087,0.015,9.131,0.018
		c2.688,0.003,3.639,0.992,2.405,3.691c-3.243,7.093-6.432,14.214-9.513,21.378c-1.14,2.651-2.82,3.858-5.774,3.768
		C469.651,504.559,464.354,504.674,459.061,504.673z"/>
	<path style="fill:#FF2741;" d="M274.982,416.408c4.366,0,8.734,0.058,13.099-0.02c3.156-0.056,4.206,1.478,3.956,4.456
		c-1.847,21.989-3.161,44.036-5.634,65.954c-1.775,15.741-6.579,30.768-15.677,44.088c-2.975,4.355-3.734,4.479-5.859-0.121
		c-4.935-10.682-9.594-21.492-14.369-32.248c-0.5-1.126-0.658-2.266-0.317-3.475c4.28-15.165,3.398-30.919,5.205-46.368
		c1.058-9.045,1.309-18.186,1.874-27.287c0.215-3.458,1.546-5.32,5.42-5.055c4.083,0.279,8.199,0.063,12.301,0.063
		C274.982,416.4,274.982,416.404,274.982,416.408z"/>
	<path style="fill:#FF2741;" d="M385.912,416.396c4.104,0.002,8.213,0.115,12.311-0.037c2.916-0.108,4.423,0.886,4.635,3.957
		c0.636,9.231,1.392,18.454,2.133,27.678c1.069,13.312,2.164,26.621,3.258,39.931c0.043,0.525,0.063,1.107,0.3,1.552
		c3.336,6.255,0.555,11.636-2.156,17.188c-3.075,6.297-5.757,12.786-8.623,19.185c-0.919,2.051-1.881,4.083-2.822,6.124
		c-1.281,2.78-2.633,2.968-4.411,0.314c-4.815-7.186-8.685-14.817-11.428-23.033c-4.399-13.174-5.856-26.813-6.824-40.572
		c-1.085-15.428-2.414-30.84-3.738-46.25c-0.445-5.183,0.153-6.008,5.45-6.037C377.969,416.377,381.94,416.394,385.912,416.396z"/>
	<path style="fill:#FF2741;" d="M441.232,550.598c-7.392,0.001-14.797,0.415-22.164-0.516c-1.697-0.215-3.409-0.441-5.061-0.867
		c-4.141-1.067-4.51-1.784-2.713-5.774c4.014-8.909,8.119-17.777,12.189-26.661c0.874-1.908,1.881-3.586,4.465-2.717
		c7.799,2.622,15.875,2.363,23.936,2.314c7.134-0.044,14.268-0.053,21.402,0.003c4.069,0.032,4.643,0.76,3.025,4.411
		c-3.959,8.932-8.132,17.769-12.14,26.68c-1.2,2.668-3.474,3.07-5.898,3.102C452.594,550.649,446.913,550.598,441.232,550.598z"/>
	<path d="M475.005,593.645c-2.542-2.22-4.794-4.21-7.074-6.168c-1.162-0.998-2.287-2.055-1.217-3.676
		c1.163-1.762,2.63-1.139,4.175-0.38c5.539,2.72,8.591,7.37,10.199,13.093c0.607,2.159-0.689,3.32-2.728,3.408
		c-1.932,0.084-2.615,0.519-2.576,2.769c0.053,3.077-1.629,5.806-3.411,8.302c-1.467,2.055-1.814,4.128-0.266,6.224
		c0.906,1.227,1.454,3.43,3.188,3.133c1.66-0.284,0.995-2.463,1.372-3.795c0.443-1.565,0.738-3.343,2.934-2.949
		c1.961,0.352,2.211,2.021,2.238,3.692c0.002,0.132,0.001,0.268-0.028,0.396c-0.83,3.629-0.155,8.471-4.675,9.722
		c-4.374,1.21-6.356-3.101-8.496-5.923c-1.617-2.133-2.526-2.782-4.841-0.844c-2.302,1.928-4.993,3.496-7.922,4.44
		c-1.629,0.525-3.314,0.404-4.158-1.289c-0.965-1.935,0.565-2.873,1.971-3.703c0.682-0.403,1.411-0.726,2.121-1.083
		c8.264-4.154,8.264-4.154,6.223-12.883c-1.468-6.279-2.822-7.145-9.177-6.077c-1.348,0.227-2.137,0.728-2.401,2.148
		c-0.565,3.051,0.64,4.137,3.678,3.402c2.072-0.501,4.896-3.03,6.037,0.541c1.153,3.609-2.55,3.957-4.747,4.296
		c-4.195,0.647-5.651,2.781-5.048,6.767c0.117,0.776,0.01,1.586,0.012,2.38c0.008,3.028-0.331,6.059-3.517,7.372
		c-3.516,1.449-6.73-0.06-9.723-1.89c-0.965-0.59-1.509-1.615-0.904-2.735c0.875-1.619,2.338-1.347,3.835-1.026
		c4.714,1.012,5.226,0.467,5.223-4.219c-0.002-3.16-1.402-3.957-4.227-3.331c-1.153,0.256-2.353,0.394-3.534,0.407
		c-1.595,0.018-2.906-0.592-3.142-2.37c-0.236-1.78,0.824-2.707,2.425-3.058c1.549-0.34,3.119-0.784,4.685-0.807
		c3.31-0.048,3.797-1.957,3.787-4.715c-0.011-3.182-1.996-3.24-4.255-3.199c-1.19,0.022-2.384,0.017-3.572-0.057
		c-1.551-0.098-2.966-0.547-3.121-2.389c-0.18-2.138,1.402-2.668,3.054-2.875c1.57-0.197,3.164-0.22,4.749-0.264
		c1.812-0.051,3.222-0.57,2.98-2.737c-0.249-2.229-1.9-1.658-3.34-1.558c-2.406,0.167-5.961,1.246-6.304-1.971
		c-0.398-3.736,3.507-3.105,5.968-3.319c3.985-0.347,7.841-1.156,11.618-2.433c2.057-0.695,4.15-0.895,4.806,1.742
		c0.63,2.528-1.552,2.956-3.306,3.578c-1.526,0.54-3.69,0.19-4.018,2.524c-0.266,1.896-0.386,4.133,2.324,4.036
		c2.424-0.086,6.03,1.817,6.727-2.521c0.393-2.448-0.019-5.017,0.069-7.526c0.052-1.499,0.448-3.047,2.314-3.179
		c2.018-0.143,2.777,1.355,3.018,3.02c0.245,1.694,0.255,3.424,0.314,5.141c0.176,5.089,0.328,5.257,5.557,5.208
		C472.047,594.423,473.265,594.679,475.005,593.645z"/>
	<path d="M540.099,594.341c2.957-3.437,3.412-6.438,4.069-9.374c0.334-1.493,0.284-3.439,2.34-3.7c2.06-0.262,2.669,1.39,3.01,2.998
		c0.444,2.091,1.996,2.138,3.639,2.235c11.671,0.69,11.694,0.698,11.661,12.512c-0.017,6.214,0.125,12.447-0.307,18.636
		c-0.238,3.415-0.305,7.417-4.382,9.103c-4.873,2.015-9.629,0.997-14.207-1.061c-1.283-0.577-1.89-1.912-1.331-3.367
		c0.511-1.331,1.694-1.554,2.969-1.36c0.519,0.079,1.024,0.259,1.534,0.395c8.713,2.31,10.279,1.252,10.646-7.812
		c0.235-5.81,0.029-11.636,0.123-17.454c0.047-2.89-1.276-3.899-4.083-4.02c-4.531-0.196-8.796-0.338-10.354,5.268
		c-0.221,0.796-1.115,1.944-1.769,1.994c-4.553,0.349-3.507,3.661-3.534,6.371c-0.049,4.893-0.099,9.788-0.003,14.679
		c0.076,3.851-1.824,5.613-5.508,5.667c-3.305,0.049-6.611,0.04-9.916-0.001c-3.193-0.039-4.991-1.78-5.09-4.892
		c-0.3-9.38-0.469-18.766,0.098-28.144c0.161-2.669,1.345-4.602,4.267-4.805c2.312-0.16,3.635-1.18,4.006-3.549
		c0.239-1.524,1.063-2.897,2.853-2.698c1.833,0.204,2.239,1.704,2.037,3.278c-0.226,1.762,0.188,2.828,2.189,2.859
		C538.341,588.15,540.373,589.615,540.099,594.341z M534.49,599.871c0.018-5.945-0.345-6.135-4.883-6.401
		c-4.255-0.249-4.649,2.051-4.559,5.374c0.146,5.382,0.426,5.625,4.919,5.88C534.213,604.964,534.879,602.713,534.49,599.871z
		 M534.421,615.08c0.471-3.356-0.068-5.695-4.562-5.551c-3.52,0.113-4.957,1.138-4.822,4.785c0.2,5.43,0.776,6.181,5.049,6.401
		C534.407,620.937,534.784,618.435,534.421,615.08z"/>
	<path style="fill:#FF2741;" d="M716.143,405.911c0-2.116-0.049-4.233,0.008-6.347c0.257-9.52,7.309-16.484,16.716-16.543
		c9.256-0.058,16.47,7.013,16.814,16.48c0.342,9.429-6.287,17.107-15.575,17.688c-4.743,0.297-9.518,0.041-14.278,0.109
		c-2.683,0.038-3.849-1.16-3.734-3.85c0.108-2.508,0.023-5.024,0.023-7.537C716.127,405.911,716.135,405.911,716.143,405.911z"/>
	<path d="M627.771,627.055c-6.219,0.003-12.438,0.021-18.657-0.008c-1.997-0.009-4.425,0.104-4.414-2.697
		c0.011-2.717,2.479-2.773,4.432-2.837c3.966-0.13,7.944-0.208,11.906-0.042c4.431,0.185,3.867-2.805,3.988-5.604
		c0.128-2.946-0.451-4.904-4.065-4.661c-3.029,0.204-6.084,0.051-9.126-0.012c-1.719-0.036-3.308-0.536-3.215-2.642
		c0.082-1.853,1.605-2.292,3.14-2.328c3.306-0.078,6.617-0.15,9.922-0.055c3.452,0.098,3.434-2.216,3.288-4.547
		c-0.145-2.299,1.006-5.308-3.072-5.625c-4.588-0.357-8.73-0.091-10.856,4.943c-0.393,0.93-1.218,1.738-1.997,2.429
		c-1.05,0.931-2.353,1.417-3.6,0.409c-1.221-0.987-1.219-2.382-0.426-3.59c3.057-4.655,6.026-9.315,7.097-14.935
		c0.264-1.384,1.49-2.241,3.05-1.812c1.538,0.424,2.117,1.713,1.778,3.107c-0.667,2.743,0.095,3.977,3.062,3.872
		c2.627-0.094,5.27,0.159,4.998-3.726c-0.055-0.787,0.005-1.591,0.098-2.377c0.186-1.578,0.872-2.915,2.607-2.998
		c1.737-0.082,2.51,1.193,2.88,2.739c0.453,1.889-0.717,4.334,1.04,5.644c1.988,1.483,4.617,0.542,6.963,0.667
		c2.244,0.119,4.501-0.009,6.744,0.122c1.839,0.108,3.527,0.733,3.419,2.997c-0.101,2.101-1.794,2.411-3.45,2.453
		c-2.777,0.07-5.557,0.047-8.335,0.053c-6.226,0.013-6.25,0.031-6.244,5.207c0.006,4.95,0.006,4.947,6.022,4.96
		c2.646,0.006,5.293-0.014,7.938,0.056c1.745,0.046,3.272,0.645,3.141,2.726c-0.118,1.86-1.646,2.231-3.188,2.254
		c-3.572,0.054-7.147,0.13-10.716,0.042c-3.55-0.088-3.291,2.368-3.163,4.615c0.131,2.281-1.074,5.482,3.067,5.549
		c4.233,0.068,8.469,0.008,12.702,0.074c2.036,0.031,4.408,0.206,4.379,2.87c-0.03,2.738-2.5,2.672-4.478,2.688
		C640.209,627.085,633.99,627.052,627.771,627.055z"/>
	<path d="M701.323,611.779c-1.576,3.453-3.099,6.932-4.754,10.347c-0.626,1.293-1.458,2.52-2.374,3.63
		c-0.899,1.089-2.169,1.614-3.54,0.858c-1.386-0.764-1.671-2.182-1.1-3.452c2.321-5.164,5.254-10.033,7.188-15.398
		c0.538-1.491,2.531-2.065,3.668-0.824c1.788,1.949,3.01,0.961,4.643-0.01c1.765-1.05,3.86-0.788,5.83-0.767
		c2.569,0.027,3.038-1.477,3.026-3.608c-0.012-2.073-0.752-3.265-2.995-3.241c-2.644,0.029-5.289,0.009-7.933-0.046
		c-1.614-0.034-3.474-0.091-3.56-2.238c-0.094-2.343,1.865-2.642,3.614-2.726c2.639-0.126,5.287-0.059,7.931-0.101
		c1.416-0.022,2.707-0.305,2.778-2.093c0.078-1.955-1.215-2.429-2.834-2.508c-2.373-0.116-4.752-0.169-7.115-0.388
		c-1.226-0.113-2.362-0.651-2.459-2.132c-0.11-1.677,1.039-2.423,2.431-2.59c2.223-0.267,4.472-0.396,6.712-0.417
		c5.557-0.053,11.097-0.23,16.599-1.131c2.065-0.338,4.719-0.96,5.021,2.081c0.296,2.986-2.48,2.866-4.523,3.174
		c-1.698,0.257-3.404,0.497-5.115,0.627c-1.906,0.144-2.928,0.962-2.829,2.989c0.095,1.951,1.338,2.382,2.956,2.396
		c2.909,0.026,5.82-0.018,8.725,0.096c1.627,0.064,3.436,0.448,3.455,2.481c0.019,2.071-1.789,2.403-3.429,2.453
		c-2.907,0.088-5.818,0.105-8.725,0.065c-2.532-0.035-3.077,1.422-3.056,3.582c0.02,2.051,0.706,3.08,2.954,3.292
		c9.151,0.861,9.145,0.925,9.147,10.119c0.002,10.763,0.002,10.765-10.581,10.763c-4.231-0.577-8.464,0.066-12.693-0.034
		c-4.525-0.107-6.105-1.746-6.308-6.314c-0.064-1.452-0.024-2.909-0.027-4.363c-0.003-1.444-0.001-2.888-0.001-4.332
		C701.808,611.94,701.566,611.86,701.323,611.779z M717.124,611.185c-9.77,0-9.862,0.13-9.415,7.3
		c0.158,2.534,1.238,3.537,3.684,3.489c3.166-0.063,6.334,0.006,9.502-0.004c5.47-0.018,5.607-0.159,5.594-5.483
		c-0.012-5.083-0.197-5.266-5.406-5.3C719.763,611.179,718.444,611.186,717.124,611.185z"/>
	<path d="M367.918,618.076c-1.489,2.23-2.46,3.959-3.7,5.467c-1.309,1.593-2.63,3.795-5.077,3.125
		c-2.697-0.739-2.656-3.363-2.695-5.603c-0.082-4.629-0.125-9.263-0.007-13.89c0.08-3.147,0.062-5.913-4.257-5.892
		c-1.306,0.006-2.107-1.057-2.059-2.462c0.042-1.213,0.828-1.834,1.891-2.278c5.379-2.245,9.546,0.216,9.837,6.079
		c0.22,4.431,0.044,8.883,0.409,13.449c1.483-1.494,2.403-3.221,4.708-3.393c1.919-0.143,1.388-1.951,1.438-3.17
		c0.433-10.368,0.42-10.369,10.997-10.373c0.529,0,1.058,0.001,1.588-0.001c5.803-0.016,8.302-3.852,6.081-9.249
		c-0.718-1.745-2.178-1.713-3.632-1.726c-3.969-0.034-7.938,0.002-11.906-0.052c-1.762-0.024-3.772-0.155-3.681-2.549
		c0.079-2.065,1.997-2.308,3.575-2.328c5.687-0.072,11.376-0.061,17.063,0.013c2.475,0.032,3.869,1.379,4.139,3.905
		c0.465,4.356,0.531,8.703-0.053,13.053c-0.359,2.674-1.861,3.938-4.554,3.924c-3.439-0.017-6.879,0.048-10.318,0.055
		c-2.443,0.005-3.69,1.157-3.613,3.645c0.012,0.396-0.021,0.794-0.013,1.19c0.277,14.513-2.394,12.167,13.14,12.371
		c2.557,0.034,3.945-1.081,4.186-3.684c0.189-2.044,0.612-4.382,3.295-3.966c2.541,0.394,2.346,2.853,2.334,4.827
		c-0.031,5.353-2.402,7.741-7.715,7.791c-3.969,0.037-7.938,0.011-11.907,0.007C369.741,626.353,369.335,626.025,367.918,618.076z"
		/>
	<path d="M270.895,611.661c-1.21,0.523-1.269,1.893-1.991,2.777c-0.868,1.063-1.857,2.199-3.296,1.607
		c-1.681-0.691-1.582-2.396-1.119-3.782c0.538-1.609,1.514-3.066,2.179-4.64c0.925-2.189,1.749-4.422,2.593-6.644
		c0.943-2.482,1.897-4.927-2.276-5.303c-1.169-0.105-1.781-1.128-1.683-2.332c0.095-1.165,0.826-2.163,1.909-2.271
		c3.847-0.383,4.575-2.701,4.427-6.06c-0.082-1.858-0.117-4.477,2.767-4.314c2.605,0.148,2.773,2.475,2.713,4.521
		c-0.081,2.79-0.087,5.355,3.696,5.699c1.252,0.114,2.126,1.12,2.128,2.495c0.002,1.685-1.247,2.301-2.621,2.427
		c-2.87,0.264-3.08,1.187-1.284,3.354c1.76,2.123,3.202,4.516,4.722,6.831c1.134,1.727,2.183,3.788,0.053,5.264
		c-2.357,1.633-3.467-0.642-4.623-2.213c-0.381-0.518-0.712-1.074-2.043-1.559c0,3.541,0.008,7.082-0.003,10.623
		c-0.007,2.246,0.012,4.494-0.085,6.737c-0.068,1.569-0.676,2.918-2.474,3.064c-2.118,0.171-2.789-1.379-2.864-3.044
		c-0.172-3.825-0.131-7.659-0.207-11.489C271.502,612.8,271.691,612.07,270.895,611.661z"/>
	<path d="M297.503,595.913c3.696,0,7.393-0.032,11.089,0.013c1.818,0.022,3.71,0.452,3.736,2.645
		c0.028,2.435-2.111,2.274-3.801,2.37c-8.226,0.47-8.223,0.461-8.228,8.79c-0.002,4.357,0.118,8.719-0.063,13.068
		c-0.21,5.064-5.887,7.945-10.174,5.313c-0.999-0.614-1.51-1.464-1.383-2.629c0.143-1.309,1.11-1.893,2.225-1.762
		c4.166,0.486,4.384-2.041,4.298-5.149c-0.129-4.617-0.127-9.243-0.004-13.86c0.071-2.677-0.881-3.927-3.663-3.771
		c-2.104,0.118-4.224,0.025-6.333-0.071c-1.425-0.065-2.698-0.665-2.813-2.241c-0.137-1.878,1.329-2.569,2.84-2.613
		c4.088-0.119,8.182-0.041,12.274-0.041C297.503,595.955,297.503,595.934,297.503,595.913z"/>
	<path d="M298.459,588.038c-3.176,0-6.353,0.055-9.527-0.023c-1.64-0.04-3.371-0.391-3.444-2.476
		c-0.063-1.799,1.402-2.524,2.917-2.662c6.73-0.616,13.477-0.456,20.213-0.102c1.539,0.081,2.867,0.957,2.822,2.751
		c-0.047,1.879-1.555,2.394-3.06,2.441c-3.304,0.105-6.614,0.033-9.922,0.033C298.46,588.012,298.459,588.025,298.459,588.038z"/>
	<path d="M293.009,607.365c-0.98,4.85-3.436,9.647-6.461,14.155c-0.73,1.089-2.15,1.748-3.512,0.957
		c-1.625-0.943-1.332-2.504-0.638-3.842c2.193-4.226,4.141-8.548,5.692-13.054c0.442-1.283,1.261-2.5,2.877-2.175
		C292.741,603.763,293.014,605.244,293.009,607.365z"/>
	<path d="M548.599,597.618c1.671,0.041,2.582,1.026,3.171,2.231c1.968,4.03,3.872,8.091,5.745,12.166
		c0.719,1.563,0.19,2.899-1.237,3.736c-1.662,0.976-2.833,0.057-3.525-1.386c-2.053-4.282-4.069-8.584-5.97-12.935
		C545.962,599.551,546.487,598.069,548.599,597.618z"/>
	<path d="M312.651,619.227c0.029,1.735-0.268,2.868-1.628,3.28c-1.489,0.451-2.727-0.244-3.267-1.518
		c-1.739-4.098-3.339-8.256-4.904-12.425c-0.522-1.39-0.06-2.636,1.337-3.299c1.267-0.601,2.436-0.106,3.087,0.977
		C309.791,610.427,311.333,615.019,312.651,619.227z"/>
	<path d="M365.064,592.013c-0.342,1.852-1.745,3.21-3.486,1.883c-2.787-2.123-5.268-4.735-7.523-7.438
		c-1.34-1.606,0.149-3.726,2.298-3.676C358.689,582.837,365.049,589.4,365.064,592.013z"/>
	<path d="M700.399,602.347c-0.277,2.266-1.859,2.93-3.85,1.905c-2.431-1.251-4.786-2.757-6.896-4.491
		c-1.771-1.455-1.708-3.298,0.606-4.327C692.787,594.31,700.175,599.258,700.399,602.347z"/>
	<path d="M700.912,591.04c-0.452,2.118-1.96,3.123-3.958,1.907c-2.454-1.494-4.765-3.336-6.797-5.369
		c-1.512-1.511-1.141-3.236,1.155-3.877C693.831,582.999,700.852,588.283,700.912,591.04z"/>
</g>
</svg>
